<svg width="60" height="60" xmlns="http://www.w3.org/2000/svg"><path fill="none" d="M-1-1h582v402H-1z"/><path stroke="null" d="M58.895 18.705s-.573-3.902-2.332-5.62c-2.23-2.256-4.73-2.266-5.876-2.398-8.207-.574-20.519-.574-20.519-.574h-.026s-12.31 0-20.518.574c-1.147.132-3.646.142-5.877 2.397-1.758 1.719-2.33 5.62-2.33 5.62S.83 23.288.83 27.869v4.297c0 4.581.586 9.163.586 9.163s.573 3.902 2.331 5.62c2.231 2.256 5.162 2.183 6.467 2.42 4.693.435 19.941.57 19.941.57s12.325-.019 20.532-.591c1.146-.132 3.647-.143 5.876-2.399 1.759-1.718 2.332-5.62 2.332-5.62s.585-4.582.585-9.163v-4.297c0-4.581-.585-9.163-.585-9.163zM24.101 37.369l-.003-15.908 15.847 7.982-15.844 7.926z"/></svg>