<svg width="60" height="60" xmlns="http://www.w3.org/2000/svg">
 <title/>
 <desc/>

 <g>
  <title>background</title>
  <rect fill="none" id="canvas_background" height="402" width="582" y="-1" x="-1"/>
 </g>
 <g>
  <title>Layer 1</title>
  <path stroke="null" id="Fill-195" d="m58.895297,18.704686c0,0 -0.573468,-3.901815 -2.332338,-5.62056c-2.229378,-2.254768 -4.729844,-2.265472 -5.876138,-2.397588c-8.207161,-0.573127 -20.518575,-0.573127 -20.518575,-0.573127l-0.026061,0c0,0 -12.310756,0 -20.518575,0.573127c-1.146294,0.132116 -3.64546,0.14282 -5.876138,2.397588c-1.75887,1.718745 -2.331038,5.62056 -2.331038,5.62056c0,0 -0.586499,4.581884 -0.586499,9.163767l0,4.296273c0,4.581249 0.586499,9.163132 0.586499,9.163132c0,0 0.572168,3.901815 2.331038,5.620575c2.230678,2.255388 5.161245,2.18304 6.466552,2.419588c4.692695,0.434736 19.941191,0.569362 19.941191,0.569362c0,0 12.324445,-0.018249 20.531606,-0.590741c1.146294,-0.132116 3.64676,-0.14282 5.876138,-2.398208c1.75887,-1.71876 2.332338,-5.620575 2.332338,-5.620575c0,0 0.585199,-4.581884 0.585199,-9.163132l0,-4.296273c0,-4.581884 -0.585199,-9.163767 -0.585199,-9.163767zm-34.794779,18.664749l-0.0026,-15.908567l15.847384,7.98165l-15.844784,7.926917z"/>
 </g>
</svg>